<svg xmlns="http://www.w3.org/2000/svg" width="339.872" height="107.616" viewBox="0 0 339.872 107.616">
<g transform="translate(6.8128,83.8272)">
<path id="Vector" opacity="0.45" d="M322.848 0H3.3984C1.52152 0 0 1.52152 0 3.3984V14.7264C0 16.6033 1.52152 18.1248 3.3984 18.1248H322.848C324.725 18.1248 326.246 16.6033 326.246 14.7264V3.3984C326.246 1.52152 324.725 0 322.848 0Z" fill="#E8F5E9"/>
</g>
<g transform="translate(87.69,20.41) scale(0.9156,0.9669)">
<path id="Vector" d="M16.7204 0.850192H3.11737C1.86524 0.850192 0.850192 1.86524 0.850192 3.11737V48.461C0.850192 49.7131 1.86524 50.7281 3.11737 50.7281H16.7204C17.9726 50.7281 18.9876 49.7131 18.9876 48.461V3.11737C18.9876 1.86524 17.9726 0.850192 16.7204 0.850192Z" fill="white" stroke="#2D7A4F" stroke-opacity="0.15" stroke-width="1.70038"/>
</g>
<g transform="translate(66.05,6.10) rotate(180 11.2792 39.7550)">
<path id="Vector" d="M0.850192 14.816L21.7082 0.850194V78.6598L0.850192 64.694V14.816Z" fill="#A5D6A7" fill-opacity="0.55" stroke="#2D7A4F" stroke-opacity="0.15" stroke-width="1.70038" stroke-linejoin="round"/>
</g>
<g transform="translate(234.2700,19.5408)">
<path id="Vector" d="M16.7088 0.8496H3.1152C1.86394 0.8496 0.8496 1.86394 0.8496 3.1152V48.4272C0.8496 49.6785 1.86394 50.6928 3.1152 50.6928H16.7088C17.9601 50.6928 18.9744 49.6785 18.9744 48.4272V3.1152C18.9744 1.86394 17.9601 0.8496 16.7088 0.8496Z" fill="#F1F8F4" fill-opacity="0.4" stroke="#2D7A4F" stroke-opacity="0.15" stroke-width="1.6992"/>
</g>
<g transform="translate(242.9000,20.3904)">
<path id="Vector" opacity="0.7" d="M0.45312 0V49.8432" stroke="#2D7A4F" stroke-opacity="0.15" stroke-width="0.90624"/>
</g>
<g transform="translate(234.2700,45.3120)">
<path id="Vector" opacity="0.7" d="M0 0.45312H18.1248" stroke="#2D7A4F" stroke-opacity="0.15" stroke-width="0.90624"/>
</g>
<g transform="translate(170.0615,92.5) scale(1.7) translate(-170.0615,-92.5)">
<g transform="translate(168.2368,61.1712)">
<path id="Frame" opacity="0.75" d="M3.3984 1.6992C3.3984 0.760758 2.63764 0 1.6992 0C0.760758 0 0 0.760758 0 1.6992V18.6912C0 19.6296 0.760758 20.3904 1.6992 20.3904C2.63764 20.3904 3.3984 19.6296 3.3984 18.6912V1.6992Z" fill="#2D7A4F"/>
</g>
<g transform="translate(156.3424,49.8432)">
<path id="Vector" d="M13.5936 18.1248C21.1011 18.1248 27.1872 14.0674 27.1872 9.0624C27.1872 4.05737 21.1011 0 13.5936 0C6.08606 0 0 4.05737 0 9.0624C0 14.0674 6.08606 18.1248 13.5936 18.1248Z" fill="#2D7A4F"/>
</g>
<g transform="translate(148.4128,59.4720)">
<path id="Vector" opacity="0.82" d="M9.0624 12.4608C14.0674 12.4608 18.1248 9.67136 18.1248 6.2304C18.1248 2.78944 14.0674 0 9.0624 0C4.05737 0 0 2.78944 0 6.2304C0 9.67136 4.05737 12.4608 9.0624 12.4608Z" fill="#2D7A4F"/>
</g>
<g transform="translate(172.7680,57.2064)">
<path id="Vector" opacity="0.82" d="M9.0624 12.4608C14.0674 12.4608 18.1248 9.67136 18.1248 6.2304C18.1248 2.78944 14.0674 0 9.0624 0C4.05737 0 0 2.78944 0 6.2304C0 9.67136 4.05737 12.4608 9.0624 12.4608Z" fill="#2D7A4F"/>
</g>
<g transform="translate(162.5728,81.5616)">
<path id="Vector" opacity="0.6" d="M0 0H14.7264L11.328 11.328H3.3984L0 0Z" fill="#1B5E20"/>
</g>
<g transform="translate(161.4400,79.2960)">
<path id="Vector" opacity="0.7" d="M15.2928 0H1.6992C0.760758 0 0 0.760758 0 1.6992V2.2656C0 3.20404 0.760758 3.9648 1.6992 3.9648H15.2928C16.2312 3.9648 16.992 3.20404 16.992 2.2656V1.6992C16.992 0.760758 16.2312 0 15.2928 0Z" fill="#1B5E20"/>
</g>
</g>

</svg>
